<?xml version="1.0" encoding="utf-8"?>
<!-- Generator: Adobe Illustrator 19.1.0, SVG Export Plug-In . SVG Version: 6.00 Build 0)  -->
<svg version="1.1" xmlns="http://www.w3.org/2000/svg" xmlns:xlink="http://www.w3.org/1999/xlink" x="0px" y="0px"
	 viewBox="0 0 312 280" xml:space="preserve">

<g id="Belo">
	<path d="M173.9,201.7c0-11.6-9.2-19.8-19.6-19.8c-10.4,0-19.6,7.9-19.6,19.6c0,8.8,6.5,23.5,16.5,35.6l6.1,6.6
		c10.9,10.7,23.7,16.5,36.1,16.5c0,0,0,0,0,0c7,0,14.3-4.2,18.5-10.7c0,0,0,0,0,0c4.1-6.5,5.3-15.4,0.5-25.9
		c-4.5-9.3-36.2-74.2-40.8-83.5c0,0,0,0,0,0c-3.8-6.9-9.8-10.5-17.3-10.5h0c-7.6,0-13.6,3.5-17.3,10.5c0,0,0,0,0,0
		c-4.5,9.3-36.2,74.2-40.8,83.5c-4.9,10.5-3.7,19.4,0.5,25.9c0,0,0,0,0,0c4.1,6.5,11.4,10.7,18.5,10.7c0,0,0,0,0,0
		c12.5,0,25.2-5.9,36.1-16.5l6.1-6.6C167.3,225,173.8,210.5,173.9,201.7L173.9,201.7z"/>
</g>
</svg>
